# xmcd
#
# Track frame offsets:
#	150
#	13116
#	26907
#	38331
#	52568
#	65421
#	78704
#	89820
#	99863
#	112094
#	124792
#	135661
#	150190
#	164433
#	176353
#	188587
#	199643
#	210883
#	222089
#	234756
#	246384
#	258785
#	272710
#	287953
#	301605
#	314420
#
# Disc length: 4357
#
# Revision: 2
# Processed by: cddbd v1.5.1PL0 Copyright (c) Steve Scherf et al.
# Submitted via: CDValet v3.31 - Copyright (c) 1997 Greg Leichner
# Normalized: r1:DSETVAR1
#
DISCID=5411031a
DTITLE=Various Artist - Blue Light
DYEAR=1900
DGENRE=blues
TTITLE0=Jealous Kind Of Fella - Garland Green
TTITLE1=Don't It Make You Feel Kinda Bad - Radiants
TTITLE2=Our Day Will Come - Ruby and The Romantics
TTITLE3=I'm Still Here - Notations
TTITLE4=Cassanova - Ruby Andrews
TTITLE5=Under The Street - Exits
TTITLE6=Stone Good Lover - Jo Armstead
TTITLE7=Go On - United Four
TTITLE8=Lovin You - Gifts
TTITLE9=Oh Cindy - Vibrations
TTITLE10=What More Can I Ask for - Startells
TTITLE11=When Love Calls - Darrow Fletcher
TTITLE12=Working On A Groovy Thing - Patti Drew
TTITLE13=Thats How Heartaches Are Made - Baby Washington
TTITLE14=Third Cup Part 1 - Eddie Fisher
TTITLE15=You Better Go - Nancy Wilson
TTITLE16=Think About Tomorrow - Ethics
TTITLE17=Forget About Me - Carolyn Crawford
TTITLE18=It's A Man Down Here - GL Crocket
TTITLE19=You Say You Love Me - Dee Edward
TTITLE20=Mighty Lover - Ideals
TTITLE21=The touch Of you - Brenda And The Tabulations
TTITLE22=Temptation 'Bout To Get Me - Knight Brothers
TTITLE23=Now I Know (I Love You) - Mandells
TTITLE24=Ain't No Big Thing - Radiants
TTITLE25=What You Gonna Do With My Love - Five Staristeps
EXTD=
EXTT0=
EXTT1=
EXTT2=
EXTT3=
EXTT4=
EXTT5=
EXTT6=
EXTT7=
EXTT8=
EXTT9=
EXTT10=
EXTT11=
EXTT12=
EXTT13=
EXTT14=
EXTT15=
EXTT16=
EXTT17=
EXTT18=
EXTT19=
EXTT20=
EXTT21=
EXTT22=
EXTT23=
EXTT24=
EXTT25=
PLAYORDER=
